<svg xmlns="http://www.w3.org/2000/svg" xmlns:xlink="http://www.w3.org/1999/xlink" width="500" zoomAndPan="magnify" viewBox="0 0 375 374.999991" height="500" preserveAspectRatio="xMidYMid meet" version="1.0"><path fill="#e0e4de" d="M 262.34375 71.730469 C 276.667969 78.183594 287.402344 84.828125 295.585938 92.1875 C 310.441406 105.5625 321.402344 122.359375 346.777344 144.59375 C 357.269531 153.777344 361.632812 164.765625 362.089844 176.039062 C 362.578125 187.316406 358.875 198.851562 352.738281 208.011719 C 346.597656 217.195312 338.125 223.792969 329.648438 225.882812 C 321.566406 227.863281 313.382812 225.640625 304.933594 217.804688 C 300.671875 179.8125 295.777344 141.210938 284.183594 109.699219 C 278.832031 95.082031 271.308594 82.566406 262.34375 71.730469 Z M 112.816406 71.730469 C 103.878906 82.566406 96.332031 95.082031 90.972656 109.699219 C 79.398438 141.203125 74.507812 179.8125 70.246094 217.804688 C 61.796875 225.640625 53.585938 227.863281 45.503906 225.882812 C 37.050781 223.789062 28.578125 217.195312 22.414062 208.011719 C 16.277344 198.851562 12.597656 187.3125 13.0625 176.039062 C 13.550781 164.765625 17.910156 153.78125 28.40625 144.59375 C 53.78125 122.367188 64.71875 105.5625 79.589844 92.1875 C 87.761719 84.828125 98.523438 78.183594 112.816406 71.730469 Z M 187.585938 51.316406 C 196.519531 51.390625 207.113281 53.488281 217.269531 55.949219 C 244.960938 62.625 261.425781 83.496094 272.601562 113.929688 C 283.757812 144.28125 288.867188 183.265625 293.203125 222.109375 C 293.203125 245.902344 291.863281 271.375 278.761719 290.417969 C 266.101562 308.753906 242.183594 322.640625 193.769531 323.710938 L 193.769531 287.914062 C 212.472656 285.308594 220.921875 271.15625 220.921875 260.925781 C 220.921875 247.3125 205.996094 241.808594 187.5625 241.808594 C 169.148438 241.808594 154.195312 247.3125 154.195312 260.925781 C 154.195312 271.15625 162.671875 285.308594 181.375 287.914062 L 181.375 323.710938 C 132.984375 322.613281 109.066406 308.753906 96.429688 290.417969 C 83.304688 271.375 81.992188 245.902344 81.960938 222.109375 C 86.300781 183.265625 91.433594 144.28125 102.5625 113.929688 C 113.742188 83.496094 130.230469 62.625 157.921875 55.949219 C 168.078125 53.492188 178.667969 51.398438 187.585938 51.316406 Z M 187.5625 38.949219 C 176.113281 39.996094 164.351562 41.363281 154.535156 44.035156 C 109.480469 56.339844 87.632812 68.316406 71.296875 83 C 54.929688 97.738281 44.601562 113.957031 20.25 135.289062 C 7.292969 146.660156 1.328125 161.25 0.71875 175.492188 C 0.109375 189.761719 4.613281 203.695312 12.136719 214.929688 C 19.660156 226.144531 30.28125 234.847656 42.582031 237.890625 C 51.320312 240.03125 60.871094 238.863281 69.734375 233.972656 C 70.273438 255.1875 73 278.21875 86.246094 297.464844 C 102.078125 320.425781 132.640625 336.238281 187.554688 336.238281 L 187.578125 336.191406 L 187.632812 336.238281 C 242.542969 336.238281 273.105469 320.429688 288.9375 297.464844 C 302.183594 278.226562 304.886719 255.1875 305.449219 233.972656 C 314.3125 238.863281 323.835938 240.039062 332.605469 237.890625 C 344.902344 234.847656 355.515625 226.148438 363.019531 214.929688 C 370.542969 203.703125 375.050781 189.761719 374.46875 175.492188 C 373.855469 161.25 367.894531 146.65625 354.90625 135.289062 C 330.554688 113.953125 320.226562 97.738281 303.863281 83 C 287.546875 68.316406 265.679688 56.339844 220.625 44.035156 C 210.808594 41.363281 199.050781 39.996094 187.625 38.949219 L 187.574219 39.023438 Z M 187.5625 38.949219 " fill-opacity="1" fill-rule="evenodd"/><path fill="#e0e4de" d="M 132.078125 171.722656 C 123.703125 171.722656 116.910156 179.542969 116.933594 189.210938 C 116.933594 198.847656 123.703125 206.695312 132.078125 206.695312 C 140.480469 206.695312 147.273438 198.847656 147.273438 189.210938 C 147.273438 179.542969 140.480469 171.722656 132.078125 171.722656 Z M 132.078125 171.722656 " fill-opacity="1" fill-rule="evenodd"/><path fill="#e0e4de" d="M 243.035156 171.722656 C 251.414062 171.722656 258.207031 179.542969 258.207031 189.210938 C 258.207031 198.847656 251.414062 206.695312 243.035156 206.695312 C 234.65625 206.695312 227.863281 198.847656 227.863281 189.210938 C 227.863281 179.542969 234.65625 171.722656 243.035156 171.722656 Z M 243.035156 171.722656 " fill-opacity="1" fill-rule="evenodd"/></svg>